# xmcd CD database file
#
# Track frame offsets:
#	150
#	30273
#	58459
#	93429
#	131168
#	161728
#	192034
#	211050
#	230951
#	250398
#	286432
#	316769
#
# Disc length: 4267 seconds
#
# Revision: 0
# Processed by: cddbd v1.5.2PL0 Copyright (c) Steve Scherf et al.
# Submitted via: CDex 1.51
#
DISCID=ae10a90c
DTITLE=Damon Brown - Harold's Souk
DYEAR=2005
DGENRE=Jazz
TTITLE0=A Bigger Picture
TTITLE1=Yeah
TTITLE2=Harold's Souk
TTITLE3=Busted Back Blues
TTITLE4=Jousting in 3
TTITLE5=On A Misty Night
TTITLE6=The Blind Mice of ABABACA
TTITLE7=Botswana
TTITLE8=Christmas Ska
TTITLE9=God Bless The Child
TTITLE10=Song for Rico
TTITLE11=Eezer
EXTD=YEAR: 2005
EXTT0=
EXTT1=
EXTT2=
EXTT3=
EXTT4=
EXTT5=
EXTT6=
EXTT7=
EXTT8=
EXTT9=
EXTT10=
EXTT11=
PLAYORDER=
